<svg width="100%" min-height="0" viewBox="0 0 500 500" fill="none"
    xmlns="http://www.w3.org/2000/svg">
    <g id="Calander">
        <g id="pata-2">
            <path id="Rectangle 1" d="M28.75 155.5V456.5C28.75 458.157 30.0932 459.5 31.75 459.5H468.25C469.907 459.5 471.25 458.157 471.25 456.5V155.5M28.75 155.5V78.5C28.75 76.8431 30.0931 75.5 31.75 75.5H57.75M28.75 155.5H471.25ZM471.25 155.5V78.5C471.25 76.8431 469.907 75.5 468.25 75.5H441.25" fill="white" />
            <g id="Group 6">
                <circle id="Ellipse 2" cx="250" cy="311.5" r="119.5" fill="url(#paint0_linear_2_2)" />
                <path id="$" d="M250.7 407.6V393.8C236.967 393.533 226.767 389.067 220.1 380.4C213.433 371.733 209.767 360.533 209.1 346.8L229.1 341.4C229.5 347.133 230.367 352.667 231.7 358C233.167 363.333 235.5 367.733 238.7 371.2C241.9 374.533 246.367 376.2 252.1 376.2C257.967 376.2 262.367 374.6 265.3 371.4C268.367 368.067 269.9 363.333 269.9 357.2C269.9 349.867 268.233 344 264.9 339.6C261.567 335.067 257.367 330.533 252.3 326L225.1 302C221.633 298.8 218.7 295.467 216.3 292C214.033 288.533 212.3 284.733 211.1 280.6C210.033 276.333 209.5 271.533 209.5 266.2C209.5 254.6 212.767 245.6 219.3 239.2C225.833 232.667 234.7 229.2 245.9 228.8V215.4H252.9V228.8C258.5 229.2 263.367 230.4 267.5 232.4C271.767 234.267 275.3 236.933 278.1 240.4C281.033 243.867 283.3 248.133 284.9 253.2C286.633 258.133 287.767 263.933 288.3 270.6L269.1 275.8C268.7 270.467 267.9 265.533 266.7 261C265.5 256.333 263.367 252.6 260.3 249.8C257.367 247 253.1 245.8 247.5 246.2C241.9 246.6 237.5 248.2 234.3 251C231.233 253.8 229.7 258.133 229.7 264C229.7 268.933 230.5 273 232.1 276.2C233.833 279.267 236.567 282.533 240.3 286L267.7 310C271.7 313.6 275.433 317.667 278.9 322.2C282.5 326.6 285.367 331.533 287.5 337C289.767 342.467 290.9 348.6 290.9 355.4C290.9 362.733 289.5 369.2 286.7 374.8C283.9 380.267 279.967 384.6 274.9 387.8C269.967 391 264.167 392.933 257.5 393.6V407.6H250.7Z" fill="white" />
            </g>
            <g id="Price">
                <path d="M372.02 439V406.6H380.06C382.007 406.6 383.553 406.96 384.7 407.68C385.873 408.373 386.727 409.387 387.26 410.72C387.793 412.053 388.06 413.667 388.06 415.56C388.06 417.267 387.753 418.747 387.14 420C386.553 421.253 385.673 422.227 384.5 422.92C383.327 423.587 381.86 423.92 380.1 423.92H376.54V439H372.02ZM376.54 420.68H378.62C379.927 420.68 380.953 420.533 381.7 420.24C382.447 419.947 382.98 419.44 383.3 418.72C383.62 417.973 383.78 416.933 383.78 415.6C383.78 414.053 383.66 412.867 383.42 412.04C383.207 411.213 382.74 410.64 382.02 410.32C381.3 410 380.18 409.84 378.66 409.84H376.54V420.68Z" fill="url(#paint1_linear_2_2)" />
                <path d="M391.239 439V406.6H397.759C399.919 406.6 401.705 406.893 403.119 407.48C404.532 408.04 405.572 408.96 406.239 410.24C406.932 411.493 407.279 413.147 407.279 415.2C407.279 416.453 407.145 417.6 406.879 418.64C406.612 419.653 406.185 420.52 405.599 421.24C405.012 421.933 404.239 422.44 403.279 422.76L407.879 439H403.519L399.279 423.8H395.759V439H391.239ZM395.759 420.56H397.479C398.759 420.56 399.799 420.4 400.599 420.08C401.399 419.76 401.985 419.213 402.359 418.44C402.732 417.667 402.919 416.587 402.919 415.2C402.919 413.307 402.572 411.947 401.879 411.12C401.185 410.267 399.812 409.84 397.759 409.84H395.759V420.56Z" fill="url(#paint2_linear_2_2)" />
                <path d="M412.221 439V406.6H416.661V439H412.221Z" fill="url(#paint3_linear_2_2)" />
                <path d="M430.023 439.36C427.729 439.36 425.943 438.88 424.663 437.92C423.409 436.96 422.529 435.667 422.023 434.04C421.543 432.413 421.303 430.6 421.303 428.6V417.16C421.303 414.973 421.543 413.067 422.023 411.44C422.529 409.813 423.409 408.56 424.663 407.68C425.943 406.773 427.729 406.32 430.023 406.32C432.049 406.32 433.649 406.693 434.823 407.44C436.023 408.187 436.876 409.253 437.383 410.64C437.916 412.027 438.183 413.693 438.183 415.64V418.2H433.903V415.92C433.903 414.72 433.836 413.667 433.703 412.76C433.596 411.827 433.276 411.107 432.743 410.6C432.209 410.093 431.316 409.84 430.063 409.84C428.783 409.84 427.849 410.12 427.263 410.68C426.676 411.213 426.289 411.987 426.103 413C425.943 413.987 425.863 415.147 425.863 416.48V429.32C425.863 430.947 425.996 432.24 426.263 433.2C426.529 434.133 426.969 434.8 427.583 435.2C428.196 435.6 429.023 435.8 430.063 435.8C431.289 435.8 432.169 435.533 432.703 435C433.236 434.44 433.569 433.68 433.703 432.72C433.836 431.76 433.903 430.64 433.903 429.36V426.96H438.183V429.36C438.183 431.333 437.943 433.08 437.463 434.6C436.983 436.093 436.156 437.267 434.983 438.12C433.809 438.947 432.156 439.36 430.023 439.36Z" fill="url(#paint4_linear_2_2)" />
                <path d="M442.489 439V406.6H455.049V409.96H447.009V420.68H453.529V423.88H447.009V435.76H455.129V439H442.489Z" fill="url(#paint5_linear_2_2)" />
            </g>
        </g>
        <g id="pata">
            <path id="Rectangle 1_2" d="M28.75 155.5V456.5C28.75 458.157 30.0932 459.5 31.75 459.5H468.25C469.907 459.5 471.25 458.157 471.25 456.5V155.5M28.75 155.5V78.5C28.75 76.8431 30.0931 75.5 31.75 75.5H57.75M28.75 155.5H471.25ZM471.25 155.5V78.5C471.25 76.8431 469.907 75.5 468.25 75.5H441.25" fill="white" />
            <g id="date">
                <path id="Jan" d="M324.95 274.4V266.3C327.417 266.3 329.417 266.133 330.95 265.8C332.483 265.467 333.65 264.867 334.45 264C335.317 263.133 335.917 261.9 336.25 260.3C336.583 258.633 336.75 256.533 336.75 254V191.5H347.95V254.2C347.95 258.867 347.45 262.7 346.45 265.7C345.45 268.633 343.683 270.833 341.15 272.3C338.617 273.7 335.017 274.4 330.35 274.4H324.95ZM370.128 273.3C367.861 273.3 365.861 272.667 364.128 271.4C362.395 270.067 361.028 268.4 360.028 266.4C359.028 264.333 358.528 262.167 358.528 259.9C358.528 256.3 359.128 253.267 360.328 250.8C361.528 248.333 363.161 246.267 365.228 244.6C367.361 242.867 369.795 241.367 372.528 240.1C375.328 238.833 378.261 237.6 381.328 236.4V232.3C381.328 229.967 381.195 228.033 380.928 226.5C380.661 224.967 380.095 223.833 379.228 223.1C378.428 222.3 377.195 221.9 375.528 221.9C374.061 221.9 372.861 222.233 371.928 222.9C371.061 223.567 370.428 224.533 370.028 225.8C369.628 227 369.428 228.433 369.428 230.1V233L358.828 232.6C358.961 226.2 360.428 221.5 363.228 218.5C366.028 215.433 370.361 213.9 376.228 213.9C381.961 213.9 386.028 215.467 388.428 218.6C390.828 221.733 392.028 226.267 392.028 232.2V258.6C392.028 260.4 392.061 262.133 392.128 263.8C392.261 265.467 392.395 267.033 392.528 268.5C392.728 269.9 392.895 271.233 393.028 272.5H383.228C383.028 271.433 382.761 270.1 382.428 268.5C382.161 266.833 381.961 265.333 381.828 264C381.161 266.267 379.861 268.4 377.928 270.4C376.061 272.333 373.461 273.3 370.128 273.3ZM374.328 264.1C375.395 264.1 376.395 263.8 377.328 263.2C378.261 262.6 379.095 261.933 379.828 261.2C380.561 260.4 381.061 259.767 381.328 259.3V242.9C379.661 243.833 378.095 244.767 376.628 245.7C375.161 246.633 373.861 247.633 372.728 248.7C371.661 249.7 370.795 250.867 370.128 252.2C369.528 253.467 369.228 254.933 369.228 256.6C369.228 258.933 369.661 260.767 370.528 262.1C371.395 263.433 372.661 264.1 374.328 264.1ZM402.306 272.5V214.7H413.006V220.4C414.94 218.6 417.073 217.067 419.406 215.8C421.74 214.533 424.306 213.9 427.106 213.9C429.44 213.9 431.206 214.5 432.406 215.7C433.673 216.9 434.54 218.4 435.006 220.2C435.54 222 435.806 223.833 435.806 225.7V272.5H425.106V228.8C425.106 226.733 424.806 225.133 424.206 224C423.606 222.867 422.373 222.3 420.506 222.3C419.306 222.3 418.04 222.667 416.706 223.4C415.44 224.067 414.206 224.9 413.006 225.9V272.5H402.306Z" fill="url(#paint6_linear_2_2)" />
                <path id="30" d="M356.55 402.9C352.15 402.9 348.483 402.067 345.55 400.4C342.617 398.733 340.417 396.333 338.95 393.2C337.483 390.067 336.75 386.367 336.75 382.1V379.4H347.35C347.35 379.667 347.35 379.967 347.35 380.3C347.35 380.567 347.35 380.867 347.35 381.2C347.417 383.6 347.683 385.767 348.15 387.7C348.683 389.633 349.583 391.167 350.85 392.3C352.183 393.433 354.083 394 356.55 394C359.15 394 361.117 393.4 362.45 392.2C363.783 390.933 364.683 389.167 365.15 386.9C365.617 384.633 365.85 382.033 365.85 379.1C365.85 374.833 365.05 371.367 363.45 368.7C361.917 365.967 359.183 364.467 355.25 364.2C355.05 364.133 354.783 364.1 354.45 364.1C354.183 364.1 353.95 364.1 353.75 364.1V353.4C353.95 353.4 354.183 353.4 354.45 353.4C354.717 353.4 354.95 353.4 355.15 353.4C358.95 353.267 361.683 352.267 363.35 350.4C365.017 348.533 365.85 345.433 365.85 341.1C365.85 337.433 365.217 334.5 363.95 332.3C362.75 330.1 360.317 329 356.65 329C352.983 329 350.55 330.233 349.35 332.7C348.15 335.1 347.483 338.2 347.35 342C347.35 342.267 347.35 342.567 347.35 342.9C347.35 343.167 347.35 343.433 347.35 343.7H336.75V341C336.75 336.667 337.483 332.967 338.95 329.9C340.417 326.833 342.617 324.467 345.55 322.8C348.55 321.133 352.25 320.3 356.65 320.3C361.117 320.3 364.817 321.133 367.75 322.8C370.683 324.467 372.883 326.867 374.35 330C375.817 333.067 376.55 336.767 376.55 341.1C376.55 345.967 375.483 349.867 373.35 352.8C371.283 355.733 368.483 357.733 364.95 358.8C367.417 359.533 369.483 360.8 371.15 362.6C372.883 364.4 374.217 366.7 375.15 369.5C376.083 372.233 376.55 375.433 376.55 379.1C376.55 383.9 375.883 388.1 374.55 391.7C373.217 395.233 371.083 398 368.15 400C365.217 401.933 361.35 402.9 356.55 402.9ZM406.306 402.9C401.706 402.9 397.906 401.867 394.906 399.8C391.973 397.733 389.773 394.9 388.306 391.3C386.906 387.7 386.206 383.6 386.206 379V344.1C386.206 339.367 386.906 335.233 388.306 331.7C389.706 328.1 391.873 325.3 394.806 323.3C397.806 321.3 401.64 320.3 406.306 320.3C410.973 320.3 414.773 321.3 417.706 323.3C420.64 325.3 422.806 328.1 424.206 331.7C425.606 335.233 426.306 339.367 426.306 344.1V379C426.306 383.667 425.573 387.8 424.106 391.4C422.706 395 420.54 397.833 417.606 399.9C414.673 401.9 410.906 402.9 406.306 402.9ZM406.306 394.1C408.84 394.1 410.74 393.367 412.006 391.9C413.34 390.433 414.24 388.567 414.706 386.3C415.24 383.967 415.506 381.567 415.506 379.1V344C415.506 341.4 415.273 338.967 414.806 336.7C414.34 334.367 413.44 332.5 412.106 331.1C410.84 329.7 408.906 329 406.306 329C403.706 329 401.74 329.7 400.406 331.1C399.073 332.5 398.173 334.367 397.706 336.7C397.24 338.967 397.006 341.4 397.006 344V379.1C397.006 381.567 397.24 383.967 397.706 386.3C398.24 388.567 399.173 390.433 400.506 391.9C401.906 393.367 403.84 394.1 406.306 394.1Z" fill="url(#paint7_linear_2_2)" />
                <path id="WED" d="M83.95 369.5L64.15 248H78.25L91.3 335.3L107.65 248.45H119.65L136.15 335.75L148.9 248H162.7L143.2 369.5H130.9L113.95 279.5L96.85 369.5H83.95ZM177.477 369.5V248H224.577V260.6H194.427V300.8H218.877V312.8H194.427V357.35H224.877V369.5H177.477ZM238.561 369.5V248H264.961C273.961 248 281.061 249.4 286.261 252.2C291.561 254.9 295.311 259 297.511 264.5C299.811 270 300.961 276.85 300.961 285.05V329.75C300.961 338.35 299.811 345.6 297.511 351.5C295.311 357.4 291.661 361.9 286.561 365C281.561 368 274.811 369.5 266.311 369.5H238.561ZM255.511 357.35H265.111C271.311 357.35 275.711 356.15 278.311 353.75C280.911 351.35 282.461 347.85 282.961 343.25C283.561 338.65 283.861 333.1 283.861 326.6V287.15C283.861 280.85 283.461 275.75 282.661 271.85C281.861 267.95 280.111 265.1 277.411 263.3C274.711 261.5 270.461 260.6 264.661 260.6H255.511V357.35Z" fill="url(#paint8_linear_2_2)" />
            </g>
        </g>
        <g id="pata-3">
            <path id="Rectangle 1_3" d="M28.75 155.5V456.5C28.75 458.157 30.0932 459.5 31.75 459.5H468.25C469.907 459.5 471.25 458.157 471.25 456.5V155.5M28.75 155.5V78.5C28.75 76.8431 30.0931 75.5 31.75 75.5H57.75M28.75 155.5H471.25M471.25 155.5V78.5C471.25 76.8431 469.907 75.5 468.25 75.5H441.25M332.25 75.5H386.75M167.75 75.5H112.75M222.75 75.5H277.25" stroke="url(#paint9_linear_2_2)" stroke-width="10" />
        </g>
        <g id="ring">
            <path id="Rectangle 3" d="M212.583 40.5H178.083C172.56 40.5 168.083 44.9772 168.083 50.5V100.5C168.083 106.023 172.56 110.5 178.083 110.5H212.583C218.106 110.5 222.583 106.023 222.583 100.5V50.5C222.583 44.9772 218.106 40.5 212.583 40.5Z" fill="white" stroke="url(#paint10_linear_2_2)" stroke-width="10" />
            <path id="Rectangle 4" d="M321.917 40.5H287.417C281.894 40.5 277.417 44.9772 277.417 50.5V100.5C277.417 106.023 281.894 110.5 287.417 110.5H321.917C327.44 110.5 331.917 106.023 331.917 100.5V50.5C331.917 44.9772 327.44 40.5 321.917 40.5Z" fill="white" stroke="url(#paint11_linear_2_2)" stroke-width="10" />
            <path id="Rectangle 5" d="M431.25 40.5H396.75C391.227 40.5 386.75 44.9772 386.75 50.5V100.5C386.75 106.023 391.227 110.5 396.75 110.5H431.25C436.773 110.5 441.25 106.023 441.25 100.5V50.5C441.25 44.9772 436.773 40.5 431.25 40.5Z" fill="white" stroke="url(#paint12_linear_2_2)" stroke-width="10" />
            <path id="Rectangle 2" d="M103.25 40.5H68.75C63.2272 40.5 58.75 44.9772 58.75 50.5V100.5C58.75 106.023 63.2272 110.5 68.75 110.5H103.25C108.773 110.5 113.25 106.023 113.25 100.5V50.5C113.25 44.9772 108.773 40.5 103.25 40.5Z" fill="white" stroke="url(#paint13_linear_2_2)" stroke-width="10" />
        </g>
    </g>
    <defs>
        <linearGradient id="paint0_linear_2_2" x1="250" y1="192" x2="250" y2="431" gradientUnits="userSpaceOnUse">
            <stop stop-color="#090051" />
            <stop offset="1" stop-color="#820000" />
        </linearGradient>
        <linearGradient id="paint1_linear_2_2" x1="413" y1="391" x2="413" y2="450" gradientUnits="userSpaceOnUse">
            <stop stop-color="#090051" />
            <stop offset="1" stop-color="#820000" />
        </linearGradient>
        <linearGradient id="paint2_linear_2_2" x1="413" y1="391" x2="413" y2="450" gradientUnits="userSpaceOnUse">
            <stop stop-color="#090051" />
            <stop offset="1" stop-color="#820000" />
        </linearGradient>
        <linearGradient id="paint3_linear_2_2" x1="413" y1="391" x2="413" y2="450" gradientUnits="userSpaceOnUse">
            <stop stop-color="#090051" />
            <stop offset="1" stop-color="#820000" />
        </linearGradient>
        <linearGradient id="paint4_linear_2_2" x1="413" y1="391" x2="413" y2="450" gradientUnits="userSpaceOnUse">
            <stop stop-color="#090051" />
            <stop offset="1" stop-color="#820000" />
        </linearGradient>
        <linearGradient id="paint5_linear_2_2" x1="413" y1="391" x2="413" y2="450" gradientUnits="userSpaceOnUse">
            <stop stop-color="#090051" />
            <stop offset="1" stop-color="#820000" />
        </linearGradient>
        <linearGradient id="paint6_linear_2_2" x1="382.75" y1="153.5" x2="382.75" y2="301.5" gradientUnits="userSpaceOnUse">
            <stop stop-color="#090051" />
            <stop offset="1" stop-color="#820000" />
        </linearGradient>
        <linearGradient id="paint7_linear_2_2" x1="382.75" y1="283" x2="382.75" y2="431" gradientUnits="userSpaceOnUse">
            <stop stop-color="#090051" />
            <stop offset="1" stop-color="#820000" />
        </linearGradient>
        <linearGradient id="paint8_linear_2_2" x1="183.75" y1="190.5" x2="183.75" y2="412.5" gradientUnits="userSpaceOnUse">
            <stop stop-color="#090051" />
            <stop offset="1" stop-color="#820000" />
        </linearGradient>
        <linearGradient id="paint9_linear_2_2" x1="250" y1="75.5" x2="250" y2="459.5" gradientUnits="userSpaceOnUse">
            <stop stop-color="#090051" />
            <stop offset="1" stop-color="#820000" />
        </linearGradient>
        <linearGradient id="paint10_linear_2_2" x1="195.333" y1="40.5" x2="195.333" y2="110.5" gradientUnits="userSpaceOnUse">
            <stop stop-color="#090051" />
            <stop offset="1" stop-color="#820000" />
        </linearGradient>
        <linearGradient id="paint11_linear_2_2" x1="304.667" y1="40.5" x2="304.667" y2="110.5" gradientUnits="userSpaceOnUse">
            <stop stop-color="#090051" />
            <stop offset="1" stop-color="#820000" />
        </linearGradient>
        <linearGradient id="paint12_linear_2_2" x1="414" y1="40.5" x2="414" y2="110.5" gradientUnits="userSpaceOnUse">
            <stop stop-color="#090051" />
            <stop offset="1" stop-color="#820000" />
        </linearGradient>
        <linearGradient id="paint13_linear_2_2" x1="86" y1="40.5" x2="86" y2="110.5" gradientUnits="userSpaceOnUse">
            <stop stop-color="#090051" />
            <stop offset="1" stop-color="#820000" />
        </linearGradient>

        <style>
#pata {
        transform-box: fill-box;
        transform-origin: center top;
        animation: pata 8s ease-in-out infinite;
      }

      @keyframes pata {
        0% {
          opacity: 1;
        }

        15%,
        50% {
          opacity: 0;
          transform: translateX(-500px);
        }

        60% {
          opacity: 0;
          transform: translateX(500px);
        }

        70%,
        100% {
          opacity: 1;
          transform: translateX(0px);
        }
      }

      #pata-2 {
        transform-box: fill-box;
        transform-origin: center top;
        animation: pata2 8s ease-in-out infinite;
      }

      @keyframes pata2 {
        0%,
        15% {
          opacity: 0;
          transform: translateX(500px);
        }

        25%,
        60% {
          opacity: 1;
          transform: translateX(0px);
        }

        75%,
        100% {
          opacity: 0;
          transform: translateX(-500px);
        }
      }
        </style>
    </defs>
</svg>